<mxfile host="app.diagrams.net" modified="2024-07-01T21:50:41.025Z" agent="Mozilla/5.0 (Windows NT 10.0; Win64; x64) AppleWebKit/537.36 (KHTML, like Gecko) Chrome/122.0.0.0 Safari/537.36" version="24.0.2" etag="QDLuHSbIwCzfLMDmdVgn" type="github">
  <diagram name="Page-1" id="iWleI0MruHmOqFnr6wnY">
    <mxGraphModel>
      <root>
        <mxCell id="0" />
        <mxCell id="1" parent="0" />
      </root>
    </mxGraphModel>
  </diagram>
</mxfile>
